<svg width="1002" height="701" viewBox="0 0 1002 701" fill="none" xmlns="http://www.w3.org/2000/svg">
<rect x="1.46582" y="1.01221" width="1000.44" height="699.597" fill="#95D09B"/>
<path d="M84.0449 7.81494L187.855 208.261L258.446 357.746L295.819 507.232L320.737 687.294" stroke="#AE0404"/>
<path d="M154.633 1.01855L200.309 92.748L233.53 215.055L287.512 344.155L312.428 486.847L329.039 595.564L366.411 687.293" stroke="#AE0404"/>
<path d="M378.854 1.01392L428.685 157.294L449.447 225.242L466.057 286.396L511.735 415.497L540.803 527.611L582.328 673.699L582.329 694.084" stroke="#AE0404"/>
<path d="M669.524 694.082L648.761 626.134L623.846 544.597L623.845 490.238L586.472 357.739L553.252 238.83L553.251 191.266L532.489 143.703L520.03 65.5623L520.029 1.01123" stroke="#AE0404"/>
<path d="M951.877 687.281L922.809 592.154" stroke="#FA3D3D" stroke-opacity="0.67" stroke-width="5"/>
<path d="M926.961 588.756L897.892 422.283L843.909 228.631L823.146 133.503L806.536 82.5425L781.621 1.00488" stroke="#FA3D3D" stroke-opacity="0.81" stroke-width="4"/>
<path d="M657.051 1.00757L669.509 72.3532L715.186 198.057L773.321 337.35L794.083 412.093L818.998 473.246L818.999 520.81L848.066 595.552L848.068 690.68" stroke="#FA3D3D" stroke-opacity="0.81" stroke-width="3"/>
<path d="M1.00342 167.495L59.1364 245.635L100.661 344.159L146.338 469.863L175.404 497.042L175.405 541.208L196.167 564.99L196.168 598.964L254.301 697.488" stroke="#FA3D3D" stroke-opacity="0.81" stroke-width="2"/>
<path d="M216.917 4.41504L279.203 119.926L320.727 201.463L337.338 279.604L358.101 371.334L378.864 446.077L403.778 510.627L403.78 571.781L441.151 643.126L457.761 690.689" stroke="#AE0404"/>
<path d="M9.31104 323.777L30.0729 357.75L46.6822 374.737L46.6829 405.314L63.2923 425.698L46.6839 452.878L67.4453 463.07L67.4459 490.249L92.3604 541.21L117.275 585.376L117.275 615.953L154.647 697.49" stroke="#AE0404"/>
<path d="M544.943 1.01025L565.706 89.3428L590.62 143.701L607.231 218.444L632.146 299.982L648.757 374.725L681.977 469.852L702.74 571.774L719.35 629.53L719.351 690.683" stroke="#AE0404"/>
<path d="M84.0454 4.4171L9.3083 150.508" stroke="#AE0404"/>
<path d="M353.941 11.2067L229.375 79.1579L129.722 106.339L9.31165 313.585" stroke="#AE0404"/>
<path d="M549.097 4.40731L449.445 82.5502L312.423 177.681L158.793 310.184L67.4461 391.724L5.16476 493.648" stroke="#AE0404"/>
<path d="M9.31906 653.326L113.122 510.632L179.556 432.49L270.904 367.937L308.273 340.757L308.273 323.77L333.186 323.769L441.143 245.626L515.881 167.484L765.012 45.1716L997.537 4.39756" stroke="#AE0404"/>
<path d="M113.124 697.491L171.254 612.554L308.275 503.834L362.253 452.871L486.818 350.946L590.622 279.598L802.384 157.286L848.058 133.503" stroke="#AE0404"/>
<path d="M233.542 697.489L324.89 632.936L420.389 541.203L540.802 456.265L681.976 344.147L810.694 293.183L993.391 238.821" stroke="#AE0404"/>
<path d="M407.935 697.485L598.935 564.981L744.261 469.85L877.131 395.104L997.545 374.717" stroke="#AE0404"/>
<path d="M557.415 697.481L848.068 547.989L918.655 510.615L1001.7 483.434" stroke="#AE0404"/>
<path d="M881.288 697.475L926.961 632.923L993.396 615.934" stroke="#AE0404"/>
<path d="M9.30641 65.5726L208.613 41.7864L345.637 41.7834L478.508 7.80637" stroke="#AE0404"/>
<path d="M9.30871 177.688L237.681 167.491L507.576 147.1L590.62 126.714" stroke="#AE0404"/>
<path d="M5.15863 279.61L208.617 245.631L287.509 204.86L395.467 204.858L470.208 225.241L748.407 204.85L926.952 191.257L993.388 191.255" stroke="#AE0404"/>
<path d="M9.31439 408.712L262.6 391.719L432.842 378.126L478.516 361.138L540.799 361.137L627.997 378.122L760.868 361.132L868.825 340.745L1001.7 320.358" stroke="#AE0404"/>
<path d="M993.387 113.116L843.907 170.876" stroke="#AE0404"/>
<path d="M989.234 113.116L823.144 75.7478" stroke="#AE0404"/>
<path d="M922.797 4.3999L968.473 55.3602L980.931 133.501L968.477 225.231L993.392 299.974" stroke="#FA3D3D" stroke-opacity="0.81" stroke-width="4"/>
<path d="M9.31853 670.314L150.494 649.927L345.649 636.333L520.043 636.329L706.893 622.735L848.068 588.758L926.96 564.975L1001.7 547.986" stroke="#AE0404"/>
<path d="M13.4696 554.801L216.929 537.81L441.149 510.626L636.303 486.839L785.783 473.247L852.219 452.861L885.437 452.86L993.394 425.678" stroke="#AE0404"/>
<path d="M9.31787 568.391L59.1473 690.697" stroke="#AE0404"/>
<path d="M192.003 4.41577L229.375 75.7609L270.899 167.49L308.271 255.823L329.034 330.565L358.102 442.68L387.169 517.422L387.17 564.986L416.237 632.934L445.304 690.69" stroke="#AE0404"/>
<path d="M171.242 1.01855L208.613 75.761L241.833 157.298L262.595 211.657L308.272 327.168L320.73 378.129L337.341 466.462L358.103 510.628L358.105 595.563L391.324 632.934L403.782 700.883" stroke="#AE0404"/>
<path d="M441.136 1.0127L461.899 62.1659L482.662 143.704L482.663 198.062L507.577 218.446L532.492 313.574L532.493 357.74L574.017 422.29L574.018 486.841L603.085 531.007L603.085 554.789L623.848 612.545L623.848 649.916L644.61 690.685" stroke="#AE0404"/>
<path d="M403.767 1.01367L420.377 24.7953L436.987 82.5511L461.901 147.102L474.36 218.447L507.58 327.164L507.581 361.138L553.257 442.675L553.258 493.637L574.02 537.803L574.021 568.38L607.24 622.738L607.241 663.507L623.85 690.686" stroke="#AE0404"/>
</svg>
