<svg width="26" height="17" viewBox="0 0 26 17" fill="none" xmlns="http://www.w3.org/2000/svg">
<path fill-rule="evenodd" clip-rule="evenodd" d="M0.966667 0C0.710291 0 0.464415 0.0983332 0.28313 0.273367C0.101845 0.448401 0 0.685798 0 0.933333C0 1.18087 0.101845 1.41827 0.28313 1.5933C0.464415 1.76833 0.710291 1.86667 0.966667 1.86667H24.1667C24.423 1.86667 24.6689 1.76833 24.8502 1.5933C25.0315 1.41827 25.1333 1.18087 25.1333 0.933333C25.1333 0.685798 25.0315 0.448401 24.8502 0.273367C24.6689 0.0983332 24.423 0 24.1667 0H0.966667ZM0 8.4C0 8.15246 0.101845 7.91507 0.28313 7.74003C0.464415 7.565 0.710291 7.46667 0.966667 7.46667H24.1667C24.423 7.46667 24.6689 7.565 24.8502 7.74003C25.0315 7.91507 25.1333 8.15246 25.1333 8.4C25.1333 8.64754 25.0315 8.88493 24.8502 9.05997C24.6689 9.235 24.423 9.33333 24.1667 9.33333H0.966667C0.710291 9.33333 0.464415 9.235 0.28313 9.05997C0.101845 8.88493 0 8.64754 0 8.4ZM0 15.8667C0 15.6191 0.101845 15.3817 0.28313 15.2067C0.464415 15.0317 0.710291 14.9333 0.966667 14.9333H24.1667C24.423 14.9333 24.6689 15.0317 24.8502 15.2067C25.0315 15.3817 25.1333 15.6191 25.1333 15.8667C25.1333 16.1142 25.0315 16.3516 24.8502 16.5266C24.6689 16.7017 24.423 16.8 24.1667 16.8H0.966667C0.710291 16.8 0.464415 16.7017 0.28313 16.5266C0.101845 16.3516 0 16.1142 0 15.8667Z" fill="#FAFF00"/>
</svg>
