<svg width="16" height="15" viewBox="0 0 16 15" fill="none" xmlns="http://www.w3.org/2000/svg">
<path d="M8.00089 6.44587e-07C3.58038 -0.00172072 0 3.44446 0 7.69796C0 11.0615 2.23975 13.9207 5.35895 14.9707C5.77902 15.0723 5.71467 14.7848 5.71467 14.5886V13.2545C3.28902 13.5282 3.19071 11.9824 3.02804 11.7242C2.69914 11.1837 1.92157 11.046 2.15395 10.7878C2.70629 10.5141 3.26936 10.8567 3.9218 11.7845C4.3937 12.4575 5.31427 12.3439 5.78081 12.232C5.8827 11.8275 6.10077 11.466 6.40107 11.1854C3.88783 10.7517 2.84035 9.27473 2.84035 7.51894C2.84035 6.66686 3.13172 5.88364 3.70372 5.25189C3.33907 4.21047 3.73768 3.3188 3.79131 3.18625C4.82985 3.09674 5.90951 3.90234 5.99352 3.96603C6.5834 3.81283 7.25729 3.73193 8.01162 3.73193C8.76952 3.73193 9.4452 3.81627 10.0404 3.9712C10.2424 3.82316 11.2434 3.13117 12.2087 3.21552C12.2605 3.34806 12.6502 4.21907 12.307 5.24673C12.8862 5.88019 13.1811 6.6703 13.1811 7.5241C13.1811 9.28334 12.1265 10.762 9.60608 11.1889C9.82196 11.3933 9.99337 11.6372 10.1103 11.9061C10.2272 12.1751 10.2873 12.4638 10.2871 12.7553V14.6919C10.3014 14.8468 10.2871 15 10.5552 15C13.7209 13.9723 16 11.0925 16 7.69968C16 3.44446 12.4178 6.44587e-07 8.00089 6.44587e-07Z" fill="#46038C"/>
</svg>
