<svg width="16" height="14" viewBox="0 0 16 14" fill="none" xmlns="http://www.w3.org/2000/svg">
<path d="M15.36 0H0.64C0.286 0 0 0.25025 0 0.56V13.44C0 13.7498 0.286 14 0.64 14H15.36C15.714 14 16 13.7498 16 13.44V0.56C16 0.25025 15.714 0 15.36 0ZM4.746 11.9298H2.372V5.24825H4.746V11.9298ZM3.56 4.33475C3.28785 4.33475 3.02182 4.26414 2.79554 4.13184C2.56925 3.99954 2.39289 3.8115 2.28874 3.5915C2.1846 3.3715 2.15735 3.12941 2.21044 2.89586C2.26353 2.66231 2.39458 2.44778 2.58702 2.27939C2.77946 2.11101 3.02464 1.99634 3.29156 1.94988C3.55847 1.90343 3.83514 1.92727 4.08657 2.0184C4.338 2.10953 4.55291 2.26385 4.7041 2.46184C4.8553 2.65984 4.936 2.89262 4.936 3.13075C4.934 3.79575 4.318 4.33475 3.56 4.33475ZM13.634 11.9298H11.262V8.68C11.262 7.90475 11.246 6.909 10.028 6.909C8.794 6.909 8.604 7.7525 8.604 8.624V11.9298H6.234V5.24825H8.51V6.16175H8.542C8.858 5.63675 9.632 5.082 10.788 5.082C13.192 5.082 13.634 6.46625 13.634 8.26525V11.9298Z" fill="#0F0AF7"/>
</svg>
